<svg xmlns="http://www.w3.org/2000/svg" version="1.1" xmlns:xlink="http://www.w3.org/1999/xlink" xmlns:svgjs="http://svgjs.dev/svgjs" width="1000" height="300" viewBox="0 0 1000 300"><g transform="matrix(1,0,0,1,-0.6060606060606233,-0.07407853460813385)"><svg viewBox="0 0 396 119" data-background-color="#ffffff" preserveAspectRatio="xMidYMid meet" height="300" width="1000" xmlns="http://www.w3.org/2000/svg" xmlns:xlink="http://www.w3.org/1999/xlink"><g id="tight-bounds" transform="matrix(1,0,0,1,0.2400000000000091,0.029384485394558624)"><svg viewBox="0 0 395.52 118.94122864936561" height="118.94122864936561" width="395.52"><g><svg viewBox="0 0 562.2931700091392 169.093447871242" height="118.94122864936561" width="395.52"><g transform="matrix(1,0,0,1,166.77317000913928,41.487531709687204)"><svg viewBox="0 0 395.52 86.1183844518676" height="86.1183844518676" width="395.52"><g id="textblocktransform"><svg viewBox="0 0 395.52 86.1183844518676" height="86.1183844518676" width="395.52" id="textblock"><g><svg viewBox="0 0 395.52 86.1183844518676" height="86.1183844518676" width="395.52"><g transform="matrix(1,0,0,1,0,0)"><svg width="395.52" viewBox="1.399999976158142 -35.349998474121094 164.6300048828125 35.849998474121094" height="86.1183844518676" data-palette-color="#0e0e0e"><path d="M11.2 0.5L11.2 0.5Q8.45 0.5 6.23-0.88 4-2.25 2.7-4.55 1.4-6.85 1.4-9.7L1.4-9.7 1.45-25.3Q1.45-28.05 2.73-30.33 4-32.6 6.23-33.98 8.45-35.35 11.2-35.35L11.2-35.35Q13.95-35.35 16.15-34 18.35-32.65 19.65-30.38 20.95-28.1 20.95-25.3L20.95-25.3 20.95-23Q20.95-22.8 20.75-22.8L20.75-22.8 15.15-22.8Q14.95-22.8 14.95-23L14.95-23 14.95-25.3Q14.95-26.95 13.88-28.15 12.8-29.35 11.2-29.35L11.2-29.35Q9.4-29.35 8.45-28.13 7.5-26.9 7.5-25.3L7.5-25.3 7.5-9.7Q7.5-7.85 8.58-6.7 9.65-5.55 11.2-5.55L11.2-5.55Q12.8-5.55 13.88-6.83 14.95-8.1 14.95-9.7L14.95-9.7 14.95-12Q14.95-12.2 15.15-12.2L15.15-12.2 20.8-12.2Q21-12.2 21-12L21-12 21-9.7Q21-6.85 19.68-4.55 18.35-2.25 16.15-0.88 13.95 0.5 11.2 0.5ZM33.9 0.5L33.9 0.5Q31.2 0.5 28.97-0.88 26.75-2.25 25.4-4.53 24.05-6.8 24.05-9.55L24.05-9.55 24.1-25.4Q24.1-28.15 25.42-30.4 26.75-32.65 29-34 31.25-35.35 33.9-35.35L33.9-35.35Q36.6-35.35 38.8-34 41-32.65 42.32-30.4 43.65-28.15 43.65-25.4L43.65-25.4 43.7-9.55Q43.7-6.8 42.37-4.53 41.05-2.25 38.82-0.88 36.6 0.5 33.9 0.5ZM33.9-5.55L33.9-5.55Q35.4-5.55 36.52-6.78 37.65-8 37.65-9.55L37.65-9.55 37.6-25.4Q37.6-27.05 36.55-28.2 35.5-29.35 33.9-29.35L33.9-29.35Q32.35-29.35 31.25-28.23 30.15-27.1 30.15-25.4L30.15-25.4 30.15-9.55Q30.15-7.9 31.25-6.73 32.35-5.55 33.9-5.55ZM56.65 0.5L56.65 0.5Q53.95 0.5 51.75-0.85 49.55-2.2 48.22-4.48 46.9-6.75 46.9-9.55L46.9-9.55 46.9-25.4Q46.9-28.1 48.22-30.38 49.55-32.65 51.77-34 54-35.35 56.65-35.35L56.65-35.35Q59.4-35.35 61.62-34.02 63.85-32.7 65.15-30.45 66.45-28.2 66.45-25.4L66.45-25.4 66.45-23.1Q66.45-22.9 66.2-22.9L66.2-22.9 60.6-22.9Q60.4-22.9 60.4-23.1L60.4-23.1 60.4-25Q60.4-26.9 59.32-28.15 58.25-29.4 56.65-29.4L56.65-29.4Q55.2-29.4 54.07-28.2 52.95-27 52.95-25.4L52.95-25.4 52.95-9.55Q52.95-7.9 54.05-6.73 55.15-5.55 56.65-5.55L56.65-5.55Q58.25-5.55 59.32-6.7 60.4-7.85 60.4-9.55L60.4-9.55 60.4-12 56.9-12Q56.65-12 56.65-12.25L56.65-12.25 56.65-17.85Q56.65-18.1 56.9-18.1L56.9-18.1 66.25-18.1Q66.45-18.1 66.45-17.85L66.45-17.85 66.45-9.55Q66.45-6.75 65.12-4.48 63.8-2.2 61.6-0.85 59.4 0.5 56.65 0.5ZM75.44 0L70.44 0Q70.04 0 70.04-0.35L70.04-0.35 69.99-34.4Q69.99-34.8 70.39-34.8L70.39-34.8 74.89-34.8 83.34-15.1 83.09-34.4Q83.09-34.8 83.54-34.8L83.54-34.8 88.49-34.8Q88.79-34.8 88.79-34.4L88.79-34.4 88.84-0.3Q88.84 0 88.59 0L88.59 0 84.19 0 75.54-18.4 75.89-0.4Q75.89 0 75.44 0L75.44 0ZM99.09 0L93.44 0Q93.19 0 93.19-0.25L93.19-0.25 93.24-34.6Q93.24-34.8 93.44-34.8L93.44-34.8 99.04-34.8Q99.24-34.8 99.24-34.6L99.24-34.6 99.29-0.25Q99.29 0 99.09 0L99.09 0ZM112.84 0.5L112.84 0.5Q110.14 0.5 107.94-0.85 105.74-2.2 104.41-4.48 103.09-6.75 103.09-9.55L103.09-9.55 103.09-25.4Q103.09-28.1 104.41-30.38 105.74-32.65 107.96-34 110.19-35.35 112.84-35.35L112.84-35.35Q115.59-35.35 117.81-34.02 120.04-32.7 121.34-30.45 122.64-28.2 122.64-25.4L122.64-25.4 122.64-23.1Q122.64-22.9 122.39-22.9L122.39-22.9 116.79-22.9Q116.59-22.9 116.59-23.1L116.59-23.1 116.59-25Q116.59-26.9 115.51-28.15 114.44-29.4 112.84-29.4L112.84-29.4Q111.39-29.4 110.26-28.2 109.14-27 109.14-25.4L109.14-25.4 109.14-9.55Q109.14-7.9 110.24-6.73 111.34-5.55 112.84-5.55L112.84-5.55Q114.44-5.55 115.51-6.7 116.59-7.85 116.59-9.55L116.59-9.55 116.59-12 113.09-12Q112.84-12 112.84-12.25L112.84-12.25 112.84-17.85Q112.84-18.1 113.09-18.1L113.09-18.1 122.44-18.1Q122.64-18.1 122.64-17.85L122.64-17.85 122.64-9.55Q122.64-6.75 121.31-4.48 119.99-2.2 117.79-0.85 115.59 0.5 112.84 0.5ZM142.54 0L126.39 0Q126.19 0 126.19-0.25L126.19-0.25 126.24-34.6Q126.24-34.8 126.44-34.8L126.44-34.8 142.49-34.8Q142.69-34.8 142.69-34.55L142.69-34.55 142.69-28.95Q142.69-28.75 142.49-28.75L142.49-28.75 132.24-28.75 132.24-20.95 142.49-20.95Q142.69-20.95 142.69-20.75L142.69-20.75 142.74-15.1Q142.74-14.9 142.54-14.9L142.54-14.9 132.24-14.9 132.24-6.15 142.54-6.15Q142.74-6.15 142.74-5.9L142.74-5.9 142.74-0.2Q142.74 0 142.54 0L142.54 0ZM152.63 0L147.63 0Q147.23 0 147.23-0.35L147.23-0.35 147.18-34.4Q147.18-34.8 147.58-34.8L147.58-34.8 152.08-34.8 160.53-15.1 160.28-34.4Q160.28-34.8 160.73-34.8L160.73-34.8 165.68-34.8Q165.98-34.8 165.98-34.4L165.98-34.4 166.03-0.3Q166.03 0 165.78 0L165.78 0 161.38 0 152.73-18.4 153.08-0.4Q153.08 0 152.63 0L152.63 0Z" opacity="1" transform="matrix(1,0,0,1,0,0)" fill="#0e0e0e" class="undefined-text-0" data-fill-palette-color="primary" id="text-0"></path></svg></g></svg></g></svg></g></svg></g><g><svg viewBox="0 0 146.44268628128017 169.093447871242" height="169.093447871242" width="146.44268628128017"><g><svg xmlns="http://www.w3.org/2000/svg" xmlns:xlink="http://www.w3.org/1999/xlink" version="1.1" x="0" y="0" viewBox="9.54699993133545 3.2899999618530273 80.906005859375 93.41999816894531" enable-background="new 0 0 100 100" xml:space="preserve" height="169.093447871242" width="146.44268628128017" class="icon-icon-0" data-fill-palette-color="accent" id="icon-0"><g fill="#6300ff" data-fill-palette-color="accent"><path d="M31.112 39.094v21.812L49.999 71.81l18.89-10.903V39.094l-18.89-10.905L31.112 39.094zM60.925 56.308l-10.926 6.307-10.924-6.307V43.692l10.924-6.308 10.926 6.308V56.308z" fill="#6300ff" data-fill-palette-color="accent"></path><path d="M49.999 3.29L9.547 26.646v46.709L49.999 96.71l40.454-23.355V26.646L49.999 3.29zM82.19 68.584L49.999 87.169 17.811 68.584v-37.17l32.188-18.585L82.19 31.414V68.584z" fill="#6300ff" data-fill-palette-color="accent"></path><path d="M20.368 32.89v34.218l29.631 17.108 29.634-17.108V32.89L49.999 15.782 20.368 32.89zM71.446 62.383l-21.447 12.38-21.444-12.38V37.618l21.444-12.382 21.447 12.382V62.383z" fill="#6300ff" data-fill-palette-color="accent"></path></g></svg></g></svg></g></svg></g><defs></defs></svg><rect width="395.52" height="118.94122864936561" fill="none" stroke="none" visibility="hidden"></rect></g></svg></g></svg>